<svg xmlns="http://www.w3.org/2000/svg" xmlns:xlink="http://www.w3.org/1999/xlink" width="500" zoomAndPan="magnify" viewBox="0 0 375 374.999991" height="500" preserveAspectRatio="xMidYMid meet" version="1.0"><defs><clipPath id="b44911e01a"><path d="M 25.441406 25.195312 L 349.558594 25.195312 L 349.558594 350 L 25.441406 350 Z M 25.441406 25.195312 " clip-rule="nonzero"/></clipPath><clipPath id="4448cdec24"><path d="M 187.5 25.195312 C 97.996094 25.195312 25.441406 97.863281 25.441406 187.5 C 25.441406 277.136719 97.996094 349.804688 187.5 349.804688 C 277.003906 349.804688 349.558594 277.136719 349.558594 187.5 C 349.558594 97.863281 277.003906 25.195312 187.5 25.195312 Z M 187.5 25.195312 " clip-rule="nonzero"/></clipPath><clipPath id="6c8ec62a0f"><path d="M 0.441406 0.195312 L 324.558594 0.195312 L 324.558594 324.921875 L 0.441406 324.921875 Z M 0.441406 0.195312 " clip-rule="nonzero"/></clipPath><clipPath id="28035028e0"><path d="M 162.5 0.195312 C 72.996094 0.195312 0.441406 72.863281 0.441406 162.5 C 0.441406 252.136719 72.996094 324.804688 162.5 324.804688 C 252.003906 324.804688 324.558594 252.136719 324.558594 162.5 C 324.558594 72.863281 252.003906 0.195312 162.5 0.195312 Z M 162.5 0.195312 " clip-rule="nonzero"/></clipPath><clipPath id="83049bfbe6"><rect x="0" width="325" y="0" height="325"/></clipPath></defs><g clip-path="url(#b44911e01a)"><g clip-path="url(#4448cdec24)"><g transform="matrix(1, 0, 0, 1, 25, 25)"><g clip-path="url(#83049bfbe6)"><g clip-path="url(#6c8ec62a0f)"><g clip-path="url(#28035028e0)"><path fill="#ffffff" d="M 0.441406 0.195312 L 324.558594 0.195312 L 324.558594 324.316406 L 0.441406 324.316406 Z M 0.441406 0.195312 " fill-opacity="1" fill-rule="nonzero"/></g></g></g></g></g></g><path stroke-linecap="round" transform="matrix(0, 0.75, -0.75, 0, 125.311299, 78.940543)" fill="none" stroke-linejoin="miter" d="M 34.501154 34.498402 L 262.766794 34.498402 " stroke="#3b82f6" stroke-width="69" stroke-opacity="1" stroke-miterlimit="4"/><path stroke-linecap="round" transform="matrix(-0.00279893, 0.749995, -0.749995, -0.00279893, 203.952882, 169.132489)" fill="none" stroke-linejoin="miter" d="M 34.499221 34.501378 L 142.640595 34.498846 " stroke="#3b82f6" stroke-width="69" stroke-opacity="1" stroke-miterlimit="4"/><path stroke-linecap="round" transform="matrix(-0.510434, 0.549507, -0.549507, -0.510434, 333.920783, 215.721432)" fill="none" stroke-linejoin="miter" d="M 34.502013 34.50047 L 141.620456 34.498511 " stroke="#3b82f6" stroke-width="69" stroke-opacity="1" stroke-miterlimit="4"/></svg>