<svg xmlns="http://www.w3.org/2000/svg" xmlns:xlink="http://www.w3.org/1999/xlink" width="500" zoomAndPan="magnify" viewBox="0 0 375 374.999991" height="500" preserveAspectRatio="xMidYMid meet" version="1.0"><defs><clipPath id="129851d116"><path d="M 0.316406 1.105469 L 276.683594 1.105469 L 276.683594 278 L 0.316406 278 Z M 0.316406 1.105469 " clip-rule="nonzero"/></clipPath><clipPath id="5ef58c92a7"><path d="M 138.5 1.105469 C 62.183594 1.105469 0.316406 63.066406 0.316406 139.5 C 0.316406 215.933594 62.183594 277.890625 138.5 277.890625 C 214.816406 277.890625 276.683594 215.933594 276.683594 139.5 C 276.683594 63.066406 214.816406 1.105469 138.5 1.105469 Z M 138.5 1.105469 " clip-rule="nonzero"/></clipPath><clipPath id="5f1fc08163"><path d="M 0.316406 0.105469 L 276.683594 0.105469 L 276.683594 276.921875 L 0.316406 276.921875 Z M 0.316406 0.105469 " clip-rule="nonzero"/></clipPath><clipPath id="2827683ac2"><path d="M 138.5 0.105469 C 62.183594 0.105469 0.316406 62.066406 0.316406 138.5 C 0.316406 214.933594 62.183594 276.890625 138.5 276.890625 C 214.816406 276.890625 276.683594 214.933594 276.683594 138.5 C 276.683594 62.066406 214.816406 0.105469 138.5 0.105469 Z M 138.5 0.105469 " clip-rule="nonzero"/></clipPath><clipPath id="b97fa7f06a"><rect x="0" width="277" y="0" height="277"/></clipPath><clipPath id="7261c3fff1"><path d="M 0.199219 0.960938 L 276.921875 0.960938 L 276.921875 278.640625 L 0.199219 278.640625 Z M 0.199219 0.960938 " clip-rule="nonzero"/></clipPath><clipPath id="8113fefb46"><rect x="0" width="277" y="0" height="279"/></clipPath></defs><g transform="matrix(1, 0, 0, 1, 49, 48)"><g clip-path="url(#8113fefb46)"><g clip-path="url(#129851d116)"><g clip-path="url(#5ef58c92a7)"><g transform="matrix(1, 0, 0, 1, -0.000000000000007105, 1)"><g clip-path="url(#b97fa7f06a)"><g clip-path="url(#5f1fc08163)"><g clip-path="url(#2827683ac2)"><path fill="#3b82f6" d="M 0.316406 0.105469 L 276.683594 0.105469 L 276.683594 276.476562 L 0.316406 276.476562 Z M 0.316406 0.105469 " fill-opacity="1" fill-rule="nonzero"/></g></g></g></g></g></g><path stroke-linecap="round" transform="matrix(0, 2.246407, -2.246407, 0, 85.878678, 46.929407)" fill="none" stroke-linejoin="miter" d="M 10.00047 10.000243 L 74.626244 10.000243 " stroke="#ffffff" stroke-width="20" stroke-opacity="1" stroke-miterlimit="4"/><g clip-path="url(#7261c3fff1)"><path stroke-linecap="round" transform="matrix(-0.00838338, 2.246391, -2.246391, -0.00838338, 152.927735, 123.842098)" fill="none" stroke-linejoin="miter" d="M 10.000215 10.000481 L 40.427486 9.999957 " stroke="#ffffff" stroke-width="20" stroke-opacity="1" stroke-miterlimit="4"/><path stroke-linecap="round" transform="matrix(-1.528856, 1.645887, -1.645887, -1.528856, 263.624829, 163.844619)" fill="none" stroke-linejoin="miter" d="M 9.99977 9.9993 L 40.137504 10.000442 " stroke="#ffffff" stroke-width="20" stroke-opacity="1" stroke-miterlimit="4"/></g></g></g></svg>